<?xml version="1.0" encoding="UTF-8" standalone="no"?>
<svg
   xmlns:dc="http://purl.org/dc/elements/1.1/"
   xmlns:cc="http://creativecommons.org/ns#"
   xmlns:rdf="http://www.w3.org/1999/02/22-rdf-syntax-ns#"
   xmlns:svg="http://www.w3.org/2000/svg"
   xmlns="http://www.w3.org/2000/svg"
   viewBox="0 0 104.76 25.066668"
   height="25.066668"
   width="104.76"
   xml:space="preserve"
   id="svg2"
   version="1.1"><metadata
     id="metadata8"><rdf:RDF><cc:Work
         rdf:about=""><dc:format>image/svg+xml</dc:format><dc:type
           rdf:resource="http://purl.org/dc/dcmitype/StillImage" /></cc:Work></rdf:RDF></metadata><defs
     id="defs6" /><g
     transform="matrix(1.3333333,0,0,-1.3333333,0,25.066667)"
     id="g10"><g
       transform="scale(0.1)"
       id="g12"><path
         id="path14"
         style="fill:#e44040;fill-opacity:1;fill-rule:nonzero;stroke:none"
         d="M 784.586,183.984 H 667.504 v -82.222 h 117.082 z m -29.492,-50.211 h -19.942 v -19.949 h -18.211 v 19.949 h -19.937 v 18.207 h 19.937 v 19.942 h 18.211 V 151.98 h 19.942 v -18.207" /><path
         id="path16"
         style="fill:#0091D4;fill-opacity:1;fill-rule:nonzero;stroke:none"
         d="M 0,64.6094 C 0,7.28516 58.8203,0 78.9414,0 119.16,0 161.891,15.0977 161.891,61.8359 c 0,33.1914 -25.133,44.5001 -50.528,51.7971 -25.1325,6.531 -51.2849,10.058 -52.031,22.621 0,10.055 12.3203,12.062 19.8594,12.062 5.7813,0 11.5625,-1.25 16.3399,-4.519 4.7657,-3.02 7.5387,-7.543 6.5317,-14.328 h 52.289 c -1.25,43.488 -35.954,58.566 -74.9145,58.566 -36.957,0 -72.39453,-17.851 -72.39453,-59.328 0,-36.207 32.42583,-43.9804 60.82813,-52.0273 30.9258,-8.7891 38.7229,-11.5625 38.7229,-20.625 0,-13.3203 -13.8362,-16.3281 -22.8831,-16.3281 -10.3046,0 -22.3711,2.2656 -26.3906,13.0664 -1.2617,3.5156 -2.0117,7.5586 -2.0117,11.8164 z M 190.25,4.27734 h 55.313 V 183.766 H 190.25 Z m 223.18,0 h 34.937 V 103.066 H 374.973 V 64.6094 h 24.379 c -2.758,-13.3203 -15.84,-19.8633 -28.664,-19.8633 -33.426,0 -40.469,29.4141 -40.469,46.2578 0,12.3161 -1.258,52.2811 36.699,52.2811 13.07,0 24.133,-9.297 26.152,-22.367 h 53.039 c -8.046,42.488 -36.699,67.117 -82.711,67.117 -40.218,0 -88.488,-27.402 -88.488,-95.7811 C 274.91,41.2305 307.59,0 360.641,0 c 19.855,0 38.711,6.54297 51.031,22.6367 z m 62.289,0 h 55.558 l 8.043,25.64456 h 57.071 L 603.93,4.27734 h 57.32 L 595.891,183.766 H 541.84 Z m 75.672,64.10156 17.347,55.3121 h 0.5 l 16.094,-55.3121 h -33.941" /><path
         id="path18"
         style="fill:#e44040;fill-opacity:1;fill-rule:nonzero;stroke:none"
         d="m 677.836,39.8516 v 28.457 h -10.309 v 3.8086 c 1.344,0 2.653,0.1094 3.922,0.3047 1.27,0.2148 2.418,0.5859 3.449,1.1523 1.024,0.5664 1.895,1.3281 2.602,2.3047 0.707,0.957 1.195,2.1953 1.453,3.6914 h 3.645 V 39.8516 h -4.762" /><path
         id="path20"
         style="fill:#e44040;fill-opacity:1;fill-rule:nonzero;stroke:none"
         d="m 712.313,69.7656 c -0.356,1.0821 -0.875,2.0508 -1.567,2.8907 -0.691,0.8398 -1.543,1.5039 -2.547,1.9843 -1.011,0.4766 -2.187,0.7305 -3.531,0.7305 -1.422,0 -2.621,-0.2656 -3.613,-0.7813 -0.992,-0.5273 -1.793,-1.2304 -2.407,-2.1093 -0.617,-0.8789 -1.066,-1.875 -1.343,-2.9883 -0.285,-1.1328 -0.418,-2.3047 -0.418,-3.5352 0,-1.0859 0.191,-2.1289 0.586,-3.1367 0.386,-1.0039 0.929,-1.9023 1.625,-2.6836 0.687,-0.789 1.507,-1.414 2.461,-1.875 0.953,-0.4687 2.004,-0.7031 3.168,-0.7031 1.23,0 2.347,0.2344 3.359,0.7031 1.008,0.461 1.863,1.0938 2.578,1.8946 0.707,0.8007 1.25,1.7382 1.621,2.8046 0.375,1.0625 0.563,2.1758 0.563,3.3282 0,1.2304 -0.176,2.3945 -0.535,3.4765 z M 699.797,44.9492 c 1.379,-1.0429 3.023,-1.5703 4.93,-1.5703 2.91,0 5.097,1.2695 6.55,3.7891 1.457,2.5195 2.262,6.3672 2.411,11.5625 l -0.114,0.1172 c -0.894,-1.6797 -2.164,-3.0274 -3.808,-4.0039 -1.645,-0.9961 -3.438,-1.4844 -5.375,-1.4844 -2.02,0 -3.809,0.3242 -5.383,0.9765 -1.567,0.6446 -2.879,1.5625 -3.945,2.7149 -1.063,1.1523 -1.872,2.5586 -2.411,4.1992 -0.543,1.6406 -0.812,3.4375 -0.812,5.3828 0,1.9024 0.316,3.6406 0.953,5.2305 0.637,1.5937 1.531,2.9492 2.691,4.0937 1.157,1.1328 2.539,2.0313 4.145,2.6563 1.601,0.6445 3.359,0.957 5.266,0.957 1.863,0 3.621,-0.293 5.261,-0.8711 1.645,-0.5742 3.082,-1.5703 4.317,-2.9961 1.23,-1.4258 2.211,-3.3515 2.937,-5.8008 0.731,-2.4414 1.098,-5.5468 1.098,-9.3164 0,-6.875 -1.098,-12.1484 -3.278,-15.8281 -2.187,-3.6836 -5.687,-5.5195 -10.503,-5.5195 -3.325,0 -6.09,0.8398 -8.289,2.5195 -2.208,1.6797 -3.458,4.2383 -3.758,7.6758 h 4.761 c 0.188,-1.9453 0.973,-3.4375 2.356,-4.4844" /><path
         id="path22"
         style="fill:#e44040;fill-opacity:1;fill-rule:nonzero;stroke:none"
         d="m 736.313,60.4883 c -1.004,-0.461 -1.864,-1.0938 -2.575,-1.8945 -0.711,-0.8008 -1.242,-1.7579 -1.593,-2.8633 -0.36,-1.1016 -0.536,-2.2617 -0.536,-3.5039 0,-1.2305 0.188,-2.3828 0.559,-3.4649 0.375,-1.0859 0.906,-2.0234 1.598,-2.8047 0.691,-0.7812 1.55,-1.4062 2.578,-1.875 1.023,-0.4687 2.191,-0.7031 3.5,-0.7031 1.308,0 2.457,0.2344 3.449,0.7031 0.984,0.4688 1.812,1.1133 2.488,1.9336 0.672,0.8203 1.188,1.7578 1.543,2.8321 0.352,1.0546 0.531,2.1679 0.531,3.332 0,1.2266 -0.16,2.3906 -0.476,3.5039 -0.316,1.0937 -0.813,2.0508 -1.484,2.8516 -0.676,0.8007 -1.516,1.4453 -2.52,1.9336 -1.012,0.4882 -2.187,0.7226 -3.531,0.7226 -1.344,0 -2.52,-0.2344 -3.531,-0.7031 z m 8.628,13.2617 c -1.156,1.0742 -2.691,1.6211 -4.593,1.6211 -2.02,0 -3.637,-0.5 -4.875,-1.4844 -1.231,-0.9961 -2.192,-2.2461 -2.883,-3.75 -0.692,-1.5234 -1.168,-3.1562 -1.43,-4.9023 -0.262,-1.7578 -0.406,-3.3985 -0.445,-4.9414 l 0.109,-0.1094 c 1.117,1.8281 2.512,3.1562 4.176,3.9766 1.66,0.8203 3.574,1.2304 5.742,1.2304 1.903,0 3.613,-0.3242 5.121,-0.9765 1.516,-0.6446 2.785,-1.5625 3.809,-2.7149 1.031,-1.1523 1.82,-2.5195 2.383,-4.082 0.562,-1.582 0.84,-3.2813 0.84,-5.0977 0,-1.4648 -0.223,-2.9687 -0.672,-4.5507 -0.446,-1.5625 -1.188,-2.9883 -2.211,-4.2774 -1.028,-1.2891 -2.391,-2.3516 -4.09,-3.1953 -1.699,-0.8398 -3.805,-1.2578 -6.305,-1.2578 -2.945,0 -5.32,0.5976 -7.113,1.7969 -1.789,1.1914 -3.172,2.7148 -4.145,4.5898 -0.972,1.8633 -1.617,3.9258 -1.933,6.1602 -0.317,2.2382 -0.473,4.4062 -0.473,6.4961 0,2.7343 0.235,5.371 0.695,7.9296 0.469,2.5586 1.262,4.8243 2.383,6.7969 1.121,1.9922 2.614,3.5742 4.485,4.7656 1.867,1.1914 4.218,1.7969 7.054,1.7969 3.285,0 5.899,-0.8711 7.844,-2.6055 1.941,-1.7304 3.063,-4.25 3.363,-7.5312 h -4.765 c -0.219,1.7891 -0.914,3.2227 -2.071,4.3164" /><path
         id="path24"
         style="fill:#e44040;fill-opacity:1;fill-rule:nonzero;stroke:none"
         d="m 769.141,60.4883 c -1.004,-0.461 -1.868,-1.0938 -2.575,-1.8945 -0.711,-0.8008 -1.246,-1.7579 -1.593,-2.8633 -0.36,-1.1016 -0.535,-2.2617 -0.535,-3.5039 0,-1.2305 0.187,-2.3828 0.558,-3.4649 0.375,-1.0859 0.906,-2.0234 1.598,-2.8047 0.691,-0.7812 1.551,-1.4062 2.578,-1.875 1.023,-0.4687 2.191,-0.7031 3.5,-0.7031 1.308,0 2.457,0.2344 3.445,0.7031 0.988,0.4688 1.817,1.1133 2.492,1.9336 0.672,0.8203 1.188,1.7578 1.543,2.8321 0.352,1.0546 0.532,2.1679 0.532,3.332 0,1.2266 -0.161,2.3906 -0.481,3.5039 -0.316,1.0937 -0.808,2.0508 -1.48,2.8516 -0.676,0.8007 -1.516,1.4453 -2.524,1.9336 -1.008,0.4882 -2.183,0.7226 -3.527,0.7226 -1.344,0 -2.52,-0.2344 -3.531,-0.7031 z M 777.77,73.75 c -1.161,1.0742 -2.692,1.6211 -4.594,1.6211 -2.02,0 -3.641,-0.5 -4.875,-1.4844 -1.231,-0.9961 -2.192,-2.2461 -2.887,-3.75 -0.687,-1.5234 -1.168,-3.1562 -1.426,-4.9023 -0.261,-1.7578 -0.41,-3.3985 -0.449,-4.9414 l 0.113,-0.1094 c 1.118,1.8281 2.508,3.1562 4.176,3.9766 1.66,0.8203 3.574,1.2304 5.742,1.2304 1.903,0 3.614,-0.3242 5.121,-0.9765 1.512,-0.6446 2.786,-1.5625 3.809,-2.7149 1.031,-1.1523 1.82,-2.5195 2.383,-4.082 0.562,-1.582 0.84,-3.2813 0.84,-5.0977 0,-1.4648 -0.227,-2.9687 -0.672,-4.5507 -0.446,-1.5625 -1.188,-2.9883 -2.215,-4.2774 -1.023,-1.2891 -2.387,-2.3516 -4.086,-3.1953 -1.699,-0.8398 -3.805,-1.2578 -6.305,-1.2578 -2.949,0 -5.32,0.5976 -7.113,1.7969 -1.793,1.1914 -3.176,2.7148 -4.144,4.5898 -0.973,1.8633 -1.618,3.9258 -1.934,6.1602 -0.316,2.2382 -0.477,4.4062 -0.477,6.4961 0,2.7343 0.239,5.371 0.7,7.9296 0.468,2.5586 1.261,4.8243 2.382,6.7969 1.121,1.9922 2.614,3.5742 4.485,4.7656 1.863,1.1914 4.219,1.7969 7.054,1.7969 3.286,0 5.899,-0.8711 7.84,-2.6055 1.946,-1.7304 3.063,-4.25 3.367,-7.5312 h -4.765 c -0.223,1.7891 -0.914,3.2227 -2.07,4.3164" /></g></g></svg>